# xmcd CD database file
#
# Track frame offsets:
#	150
#	16297
#	36607
#	57650
#	74512
#	92449
#	110137
#	128654
#	152259
#	164387
#	178712
#	195671
#	214268
#	232995
#	253360
#	273396
#	294210
#	312660
#	336102
#
# Disc length: 4689 seconds
#
# Revision: 1
# Processed by: cddbd v1.5.2PL0 Copyright (c) Steve Scherf et al.
# Submitted via: CDex 1.70beta2
#
DISCID=1f124f13
DTITLE=Schiller - Desire 2.0
DYEAR=2009
DGENRE=New Age
TTITLE0=Let Me Love You (With Kim Sanders)
TTITLE1=Heartbeat
TTITLE2=Black (With Jette Von Roth)
TTITLE3=Denn Wer Liebt (With Anna Maria Mühe)
TTITLE4=Sehnsucht (With Xavier Naidoo)
TTITLE5=Fate (With Isis Gee)
TTITLE6=Everything (With Helen Boulding)
TTITLE7=In Der Weite (With Anna Maria Mühe)
TTITLE8=Ile Aye (With Stephenie Coker)
TTITLE9=Time For Dreams (With Lang Lang)
TTITLE10=Zenith (With Klaus Schulze)
TTITLE11=Destiny (With Despina Vandi)
TTITLE12=You (With Colbie Caillat)
TTITLE13=Wunschtraum
TTITLE14=Porque Te Vas (With Ana Torroja)
TTITLE15=Tired (Mit Jaël)
TTITLE16=Wehmut
TTITLE17=Forever (With Kim Sanders)
TTITLE18=Breathe I Dave Ramone (Radio Edit) (With September) (Bonus)
EXTD=YEAR: 2009
EXTT0=
EXTT1=
EXTT2=
EXTT3=
EXTT4=
EXTT5=
EXTT6=
EXTT7=
EXTT8=
EXTT9=
EXTT10=
EXTT11=
EXTT12=
EXTT13=
EXTT14=
EXTT15=
EXTT16=
EXTT17=
EXTT18=
PLAYORDER=
